HIERARCHY
ROOT hips
{
	OFFSET -0.003675 0.299928 -0.021708
	CHANNELS 6 Xposition Yposition Zposition Xrotation Yrotation Zrotation
	JOINT LowerBack
	{
		OFFSET 0.000919 0.177588 0.009275
		CHANNELS 3 Xrotation Yrotation Zrotation
		JOINT spine
		{
			OFFSET 0.000919 0.177588 0.009275
			CHANNELS 3 Xrotation Yrotation Zrotation
			JOINT chest
			{
				OFFSET 0.000456 0.100015 0.004638
				CHANNELS 3 Xrotation Yrotation Zrotation
				JOINT neck
				{
					OFFSET 0.000456 0.100015 0.004638
					CHANNELS 3 Xrotation Yrotation Zrotation
					JOINT head
					{
						OFFSET 0.000924 0.155147 0.009274
						CHANNELS 6 Xposition Yposition Zposition Xrotation Yrotation Zrotation
						End Site
						{
							OFFSET 0.000000 0.153400 0.000000
						}
					}
				}
				JOINT shoulder.L
				{
					OFFSET 0.019937 0.078966 0.057518
					CHANNELS 6 Xposition Yposition Zposition Yrotation Xrotation Zrotation
					JOINT upper_arm.L
					{
						OFFSET 0.177024 -0.020465 -0.095062
						CHANNELS 6 Xposition Yposition Zposition Xrotation Yrotation Zrotation
						JOINT forearm.L
						{
							OFFSET 0.247100 -0.135500 -0.061800
							CHANNELS 3 Xrotation Yrotation Zrotation
							JOINT hand.L
							{
								OFFSET 0.217000 -0.143000 0.039300
								CHANNELS 3 Xrotation Yrotation Zrotation
								JOINT palm.01.L
								{
									OFFSET 0.021770 -0.038291 0.012954
									CHANNELS 6 Xposition Yposition Zposition Yrotation Xrotation Zrotation
									JOINT f_index.01.L
									{
										OFFSET 0.053215 -0.044137 0.008236
										CHANNELS 3 Xrotation Yrotation Zrotation
										JOINT f_index.02.L
										{
											OFFSET 0.036108 -0.024723 -0.010656
											CHANNELS 3 Xrotation Yrotation Zrotation
											JOINT f_index.03.L
											{
												OFFSET 0.021342 -0.014948 -0.010846
												CHANNELS 3 Xrotation Yrotation Zrotation
												End Site
												{
													OFFSET 0.015600 -0.009860 -0.013421
												}
											}
										}
									}
									JOINT thumb.01.L
									{
										OFFSET -0.009090 -0.002348 -0.024223
										CHANNELS 6 Xposition Yposition Zposition Xrotation Yrotation Zrotation
										JOINT thumb.02.L
										{
											OFFSET 0.019713 -0.035076 -0.011120
											CHANNELS 3 Xrotation Yrotation Zrotation
											JOINT thumb.03.L
											{
												OFFSET 0.024877 -0.021748 -0.005176
												CHANNELS 3 Xrotation Yrotation Zrotation
												End Site
												{
													OFFSET 0.016125 -0.013029 -0.001569
												}
											}
										}
									}
								}
								JOINT palm.02.L
								{
									OFFSET 0.032823 -0.025104 0.012281
									CHANNELS 6 Xposition Yposition Zposition Yrotation Xrotation Zrotation
									JOINT f_middle.01.L
									{
										OFFSET 0.055723 -0.038469 0.008037
										CHANNELS 3 Xrotation Yrotation Zrotation
										JOINT f_middle.02.L
										{
											OFFSET 0.038167 -0.027473 -0.015582
											CHANNELS 3 Xrotation Yrotation Zrotation
											JOINT f_middle.03.L
											{
												OFFSET 0.021707 -0.016587 -0.017037
												CHANNELS 3 Xrotation Yrotation Zrotation
												End Site
												{
													OFFSET 0.014112 -0.010584 -0.014294
												}
											}
										}
									}
								}
								JOINT palm.03.L
								{
									OFFSET 0.039230 -0.011402 0.008390
									CHANNELS 6 Xposition Yposition Zposition Yrotation Xrotation Zrotation
									JOINT f_ring.01.L
									{
										OFFSET 0.061796 -0.031470 0.007910
										CHANNELS 3 Xrotation Yrotation Zrotation
										JOINT f_ring.02.L
										{
											OFFSET 0.033092 -0.023401 -0.019127
											CHANNELS 3 Xrotation Yrotation Zrotation
											JOINT f_ring.03.L
											{
												OFFSET 0.021392 -0.015362 -0.017824
												CHANNELS 3 Xrotation Yrotation Zrotation
												End Site
												{
													OFFSET 0.008670 -0.007297 -0.014686
												}
											}
										}
									}
								}
								JOINT palm.04.L
								{
									OFFSET 0.043417 0.002450 0.002889
									CHANNELS 6 Xposition Yposition Zposition Yrotation Xrotation Zrotation
									JOINT f_pinky.01.L
									{
										OFFSET 0.069986 -0.026156 0.003627
										CHANNELS 3 Xrotation Yrotation Zrotation
										JOINT f_pinky.02.L
										{
											OFFSET 0.018520 -0.012813 -0.016429
											CHANNELS 3 Xrotation Yrotation Zrotation
											JOINT f_pinky.03.L
											{
												OFFSET 0.013822 -0.009796 -0.014947
												CHANNELS 3 Xrotation Yrotation Zrotation
												End Site
												{
													OFFSET 0.007238 -0.006103 -0.011657
												}
											}
										}
									}
								}
							}
						}
					}
				}
				JOINT shoulder.R
				{
					OFFSET -0.016662 0.078957 0.057696
					CHANNELS 6 Xposition Yposition Zposition Yrotation Xrotation Zrotation
					JOINT upper_arm.R
					{
						OFFSET -0.176972 -0.020537 -0.095144
						CHANNELS 6 Xposition Yposition Zposition Xrotation Yrotation Zrotation
						JOINT forearm.R
						{
							OFFSET -0.247100 -0.135500 -0.061800
							CHANNELS 3 Xrotation Yrotation Zrotation
							JOINT hand.R
							{
								OFFSET -0.217000 -0.143000 0.039300
								CHANNELS 3 Xrotation Yrotation Zrotation
								JOINT palm.01.R
								{
									OFFSET -0.021773 -0.038278 0.012988
									CHANNELS 6 Xposition Yposition Zposition Yrotation Xrotation Zrotation
									JOINT f_index.01.R
									{
										OFFSET -0.053212 -0.044139 0.008249
										CHANNELS 3 Xrotation Yrotation Zrotation
										JOINT f_index.02.R
										{
											OFFSET -0.036049 -0.024835 -0.010634
											CHANNELS 3 Xrotation Yrotation Zrotation
											JOINT f_index.03.R
											{
												OFFSET -0.021371 -0.014881 -0.010866
												CHANNELS 3 Xrotation Yrotation Zrotation
												End Site
												{
													OFFSET -0.015584 -0.009883 -0.013422
												}
											}
										}
									}
									JOINT thumb.01.R
									{
										OFFSET 0.009113 -0.002381 -0.024211
										CHANNELS 6 Xposition Yposition Zposition Xrotation Yrotation Zrotation
										JOINT thumb.02.R
										{
											OFFSET -0.019694 -0.035097 -0.011088
											CHANNELS 3 Xrotation Yrotation Zrotation
											JOINT thumb.03.R
											{
												OFFSET -0.024867 -0.021762 -0.005168
												CHANNELS 3 Xrotation Yrotation Zrotation
												End Site
												{
													OFFSET -0.016120 -0.013036 -0.001565
												}
											}
										}
									}
								}
								JOINT palm.02.R
								{
									OFFSET -0.032828 -0.025095 0.012286
									CHANNELS 6 Xposition Yposition Zposition Yrotation Xrotation Zrotation
									JOINT f_middle.01.R
									{
										OFFSET -0.055721 -0.038472 0.008040
										CHANNELS 3 Xrotation Yrotation Zrotation
										JOINT f_middle.02.R
										{
											OFFSET -0.038101 -0.027593 -0.015557
											CHANNELS 3 Xrotation Yrotation Zrotation
											JOINT f_middle.03.R
											{
												OFFSET -0.021730 -0.016530 -0.017054
												CHANNELS 3 Xrotation Yrotation Zrotation
												End Site
												{
													OFFSET -0.014096 -0.010608 -0.014293
												}
											}
										}
									}
								}
								JOINT palm.03.R
								{
									OFFSET -0.039192 -0.011488 0.008390
									CHANNELS 6 Xposition Yposition Zposition Yrotation Xrotation Zrotation
									JOINT f_ring.01.R
									{
										OFFSET -0.061839 -0.031387 0.007876
										CHANNELS 3 Xrotation Yrotation Zrotation
										JOINT f_ring.02.R
										{
											OFFSET -0.033068 -0.023437 -0.019125
											CHANNELS 3 Xrotation Yrotation Zrotation
											JOINT f_ring.03.R
											{
												OFFSET -0.021371 -0.015393 -0.017822
												CHANNELS 3 Xrotation Yrotation Zrotation
												End Site
												{
													OFFSET -0.008654 -0.007321 -0.014684
												}
											}
										}
									}
								}
								JOINT palm.04.R
								{
									OFFSET -0.043421 0.002443 0.002845
									CHANNELS 6 Xposition Yposition Zposition Yrotation Xrotation Zrotation
									JOINT f_pinky.01.R
									{
										OFFSET -0.069983 -0.026169 0.003599
										CHANNELS 3 Xrotation Yrotation Zrotation
										JOINT f_pinky.02.R
										{
											OFFSET -0.018501 -0.012842 -0.016428
											CHANNELS 3 Xrotation Yrotation Zrotation
											JOINT f_pinky.03.R
											{
												OFFSET -0.013806 -0.009821 -0.014946
												CHANNELS 3 Xrotation Yrotation Zrotation
												End Site
												{
													OFFSET -0.007226 -0.006121 -0.011655
												}
											}
										}
									}
								}
							}
						}
					}
				}
			}
		}
	}
	JOINT pelvis.L
	{
		OFFSET 0.000000 0.000000 0.000000
		CHANNELS 6 Xposition Yposition Zposition Xrotation Yrotation Zrotation
		JOINT thigh.L
		{
			OFFSET 0.101675 0.001054 -0.000000
			CHANNELS 3 Xrotation Yrotation Zrotation
			JOINT shin.L
			{
				OFFSET 0.000000 -0.534800 0.041000
				CHANNELS 3 Xrotation Yrotation Zrotation
				JOINT foot.L
				{
					OFFSET 0.000000 -0.452000 -0.044800
					CHANNELS 3 Xrotation Yrotation Zrotation
					JOINT toe.L
					{
						OFFSET -0.000000 -0.068500 0.109600
						CHANNELS 3 Xrotation Yrotation Zrotation
						End Site
						{
							OFFSET -0.000000 0.000000 0.067200
						}
					}
				}
				JOINT heel.L
				{
					OFFSET 0.000000 -0.452000 -0.044800
					CHANNELS 3 Xrotation Yrotation Zrotation
					JOINT heel.02.L
					{
						OFFSET -0.038000 -0.085200 0.016200
						CHANNELS 6 Xposition Yposition Zposition Xrotation Yrotation Zrotation
						End Site
						{
							OFFSET 0.080000 -0.000000 0.000000
						}
					}
				}
			}
		}
	}
	JOINT pelvis.R
	{
		OFFSET 0.000000 0.000000 0.000000
		CHANNELS 6 Xposition Yposition Zposition Xrotation Yrotation Zrotation
		JOINT thigh.R
		{
			OFFSET -0.094325 0.001054 0.000000
			CHANNELS 3 Xrotation Yrotation Zrotation
			JOINT shin.R
			{
				OFFSET 0.000000 -0.534800 0.041000
				CHANNELS 3 Xrotation Yrotation Zrotation
				JOINT foot.R
				{
					OFFSET 0.000000 -0.452000 -0.044800
					CHANNELS 3 Xrotation Yrotation Zrotation
					JOINT toe.R
					{
						OFFSET -0.000000 -0.068500 0.109600
						CHANNELS 3 Xrotation Yrotation Zrotation
						End Site
						{
							OFFSET -0.000000 0.000000 0.067200
						}
					}
				}
				JOINT heel.R
				{
					OFFSET 0.000000 -0.452000 -0.044800
					CHANNELS 3 Xrotation Yrotation Zrotation
					JOINT heel.02.R
					{
						OFFSET 0.038000 -0.085200 0.016200
						CHANNELS 6 Xposition Yposition Zposition Xrotation Yrotation Zrotation
						End Site
						{
							OFFSET -0.080000 0.000000 -0.000000
						}
					}
				}
			}
		}
	}
}
MOTION
Frames: 4
Frame Time: 0.041667
0.002523 0.205318 0.009744 0.954108 5.772928 91.631981 0.000000 -0.000000 -0.000000 -0.000000 0.000000 -0.000000 -0.000000 -0.000000 -0.000000 -0.000001 -0.000000 -0.000000 0.000924 0.155147 0.009274 -4.795700 -0.002350 -22.758004 0.019937 0.078966 0.057518 -4.231739 1.296541 34.973659 0.177024 -0.020465 -0.095062 -43.624036 14.072432 -54.671915 6.476546 8.077620 -3.097167 0.000002 -0.000001 -0.000002 0.021770 -0.038291 0.012954 0.000001 0.000002 0.000001 -0.000006 -0.000004 -0.000001 -0.000000 -0.000002 0.000003 0.000002 0.000003 -0.000003 -0.009090 -0.002348 -0.024223 -0.000004 -0.000004 0.000004 -0.000002 0.000000 0.000003 0.000003 0.000004 0.000001 0.032823 -0.025104 0.012281 -0.000000 0.000002 0.000002 0.000001 0.000001 -0.000003 -0.000004 -0.000004 -0.000000 -0.000001 0.000000 -0.000001 0.039230 -0.011402 0.008390 -0.000001 -0.000002 0.000003 0.000003 0.000000 -0.000000 0.000000 0.000005 -0.000001 -0.000003 -0.000001 0.000004 0.043417 0.002450 0.002889 0.000001 0.000004 -0.000004 -0.000007 -0.000006 -0.000000 -0.000003 -0.000000 -0.000001 -0.000001 -0.000005 -0.000001 -0.016662 0.078956 0.057696 0.248893 1.033529 -32.035947 -0.176972 -0.020537 -0.095144 -18.767429 -11.295032 53.092023 -9.372760 8.104562 29.548997 0.000004 -0.000003 0.000003 -0.021773 -0.038278 0.012988 -0.000001 0.000000 -0.000003 0.000000 0.000001 -0.000005 -0.000003 0.000001 -0.000009 0.000001 0.000000 0.000001 0.009114 -0.002381 -0.024212 0.000001 -0.000001 -0.000006 0.000000 -0.000002 -0.000001 -0.000000 0.000002 -0.000008 -0.032828 -0.025095 0.012286 0.000001 0.000001 -0.000003 -0.000003 0.000002 0.000001 0.000001 -0.000002 -0.000004 -0.000004 0.000000 -0.000005 -0.039192 -0.011488 0.008390 0.000001 0.000004 0.000003 -0.000001 0.000001 -0.000003 -0.000002 -0.000001 -0.000002 -0.000002 -0.000001 0.000001 -0.043421 0.002443 0.002845 0.000001 -0.000001 -0.000001 -0.000001 0.000002 -0.000002 -0.000001 -0.000001 -0.000000 0.000001 0.000001 -0.000002 -0.000000 0.000000 -0.000000 -2.193649 -0.123225 0.394756 61.818007 -0.256522 -6.260433 -6.702990 -0.562937 5.691031 0.000003 -0.000000 0.000000 -0.000004 0.000000 0.000000 0.000002 0.000000 0.000000 -0.038000 -0.085200 0.016200 0.000002 -0.000000 -0.000000 -0.000000 0.000000 -0.000000 -2.151024 -0.122489 1.629028 58.663170 -0.020733 3.145109 -6.519963 1.059824 -10.756897 -0.000003 0.000000 -0.000000 -0.000001 0.000000 0.000000 0.000000 0.000000 -0.000000 0.038000 -0.085200 0.016200 0.000001 0.000000 -0.000001 
0.002308 0.205260 0.009603 0.495886 5.687965 90.616243 0.000000 0.000000 0.000000 0.000000 -0.000000 0.000000 0.000000 0.000000 -0.000000 0.000001 0.000000 -0.000000 0.000924 0.155147 0.009274 -3.260206 0.003096 -17.294795 0.019937 0.078966 0.057518 -7.285705 1.093238 35.727709 0.177024 -0.020465 -0.095062 -42.460417 10.165307 -49.149249 4.391811 7.532656 5.082006 -0.000004 -0.000001 0.000002 0.021770 -0.038291 0.012954 0.000001 0.000002 0.000001 -0.000001 -0.000000 0.000001 -0.000002 -0.000004 0.000008 -0.000000 0.000004 -0.000000 -0.009090 -0.002348 -0.024224 -0.000000 -0.000001 0.000001 -0.000001 -0.000001 0.000003 -0.000000 0.000000 0.000003 0.032823 -0.025104 0.012281 -0.000001 0.000002 0.000005 -0.000004 -0.000002 -0.000005 -0.000003 0.000003 0.000005 -0.000001 0.000001 0.000006 0.039230 -0.011402 0.008390 -0.000000 0.000001 0.000006 -0.000001 -0.000000 -0.000002 0.000001 0.000008 0.000005 0.000006 -0.000003 0.000002 0.043417 0.002450 0.002889 -0.000001 0.000003 -0.000002 -0.000004 -0.000002 -0.000004 0.000001 -0.000001 0.000003 0.000003 -0.000004 0.000000 -0.016662 0.078956 0.057696 -3.520782 0.794739 -29.898682 -0.176972 -0.020537 -0.095144 -23.462209 -9.329501 48.218233 -8.926181 9.122156 16.354043 0.000003 -0.000002 -0.000003 -0.021773 -0.038278 0.012988 0.000000 0.000000 -0.000005 -0.000000 0.000003 -0.000001 -0.000002 0.000001 -0.000006 -0.000001 -0.000003 0.000002 0.009113 -0.002381 -0.024211 0.000001 0.000001 0.000003 0.000001 -0.000002 0.000000 0.000001 0.000000 -0.000006 -0.032828 -0.025095 0.012286 0.000003 -0.000001 -0.000003 0.000001 0.000000 0.000001 0.000001 -0.000003 -0.000001 -0.000001 0.000004 -0.000007 -0.039192 -0.011488 0.008390 0.000002 -0.000000 -0.000005 -0.000002 0.000001 0.000000 0.000002 0.000000 0.000002 -0.000002 0.000000 -0.000005 -0.043421 0.002443 0.002845 -0.000000 0.000002 0.000000 -0.000002 0.000000 -0.000001 0.000000 -0.000004 0.000002 0.000000 0.000003 0.000003 -0.000000 0.000000 -0.000000 -2.227167 -0.098551 0.118165 62.451138 -0.208077 -5.679675 -5.996666 -0.510834 5.162948 0.000005 -0.000000 -0.000000 -0.000002 0.000000 -0.000000 0.000002 -0.000000 -0.000000 -0.038000 -0.085200 0.016200 -0.000004 0.000000 -0.000000 -0.000000 0.000000 0.000000 -2.182979 -0.098002 1.352426 57.576637 0.040410 3.926828 -4.979019 0.858838 -8.698781 0.000002 -0.000000 0.000000 0.000005 0.000000 0.000000 0.000002 0.000000 -0.000000 0.038000 -0.085200 0.016200 -0.000000 0.000000 -0.000000 
0.003874 0.199505 0.007065 16.438095 13.548601 91.992218 0.000000 -0.000001 0.000000 -0.000002 -0.000001 -0.000000 0.000000 -0.000001 0.000000 0.000001 -0.000001 0.000001 0.000924 0.155148 0.009274 -10.802484 0.025693 -19.594192 0.019937 0.078966 0.057518 17.685989 6.026306 46.133478 0.177025 -0.020465 -0.095062 -1.362575 0.021172 16.327268 -1.368031 -8.879842 24.596222 0.000001 -0.000002 0.000002 0.021770 -0.038291 0.012954 -0.000002 0.000001 0.000001 -0.000001 -0.000002 -0.000000 -0.000002 0.000001 0.000005 0.000001 0.000003 -0.000000 -0.009090 -0.002348 -0.024224 -0.000000 0.000001 0.000001 -0.000000 -0.000003 0.000003 0.000001 -0.000001 0.000001 0.032823 -0.025104 0.012281 -0.000002 -0.000001 0.000005 0.000001 0.000000 -0.000002 -0.000001 -0.000003 0.000001 -0.000000 -0.000003 0.000001 0.039230 -0.011402 0.008390 -0.000001 0.000001 0.000004 0.000003 0.000004 -0.000000 -0.000001 -0.000002 0.000005 0.000003 0.000000 0.000004 0.043417 0.002450 0.002889 -0.000002 0.000002 -0.000002 -0.000003 -0.000001 -0.000000 -0.000000 0.000003 -0.000003 0.000000 0.000002 -0.000003 -0.016662 0.078957 0.057696 0.114341 1.025253 -34.431373 -0.176972 -0.020537 -0.095144 -11.057244 -4.099227 12.038291 23.520760 -5.836475 -109.281189 -0.000001 -0.000001 0.000004 -0.021773 -0.038278 0.012988 -0.000001 0.000001 -0.000002 -0.000000 0.000003 -0.000003 -0.000003 0.000001 -0.000004 -0.000003 0.000000 0.000001 0.009114 -0.002381 -0.024211 0.000002 -0.000001 -0.000001 -0.000001 -0.000004 -0.000002 0.000002 0.000003 -0.000001 -0.032828 -0.025095 0.012286 -0.000001 -0.000000 -0.000001 0.000004 -0.000001 0.000002 -0.000000 -0.000001 -0.000002 -0.000002 -0.000003 -0.000004 -0.039192 -0.011488 0.008390 -0.000001 0.000001 -0.000002 0.000002 0.000005 -0.000003 0.000000 -0.000001 -0.000002 0.000000 -0.000001 -0.000003 -0.043421 0.002443 0.002844 -0.000003 0.000000 0.000000 -0.000003 0.000007 -0.000003 -0.000002 -0.000000 0.000003 0.000001 -0.000000 -0.000000 -0.000000 0.000000 -0.000000 -2.345070 1.065167 -12.198375 56.531632 -0.622100 -10.951746 -11.325139 0.075601 -0.760828 -0.000002 0.000001 0.000000 -0.000003 -0.000000 0.000000 0.000002 0.000001 0.000001 -0.038000 -0.085200 0.016200 -0.000001 0.000000 0.000000 -0.000000 0.000000 -0.000000 -2.254170 1.046498 -10.965871 56.175181 -0.531247 -3.578426 -17.750038 0.993212 -10.073321 0.000000 -0.000001 -0.000000 -0.000000 0.000002 0.000001 0.000003 -0.000000 0.000000 0.038000 -0.085200 0.016200 0.000001 -0.000000 0.000000 
0.002269 0.198778 0.006073 22.022377 13.869418 90.110781 -0.000001 0.000002 -0.000000 -0.000001 0.000001 -0.000000 -0.000001 0.000001 -0.000000 -0.000001 -0.000001 0.000000 0.000924 0.155147 0.009274 -15.720119 0.046618 -18.947370 0.019937 0.078966 0.057518 21.803403 6.764858 45.469488 0.177024 -0.020465 -0.095062 0.059273 2.605743 18.749528 0.468388 -3.122426 30.424477 -0.000001 -0.000001 -0.000002 0.021770 -0.038291 0.012954 0.000000 0.000002 0.000001 0.000000 -0.000001 -0.000000 -0.000001 0.000003 0.000009 -0.000002 0.000002 0.000002 -0.009090 -0.002348 -0.024223 0.000003 0.000000 -0.000006 0.000000 -0.000001 0.000001 -0.000000 0.000004 -0.000002 0.032823 -0.025104 0.012281 0.000001 0.000001 0.000002 -0.000000 0.000003 -0.000003 -0.000003 -0.000000 -0.000000 -0.000001 0.000002 -0.000003 0.039230 -0.011402 0.008390 0.000000 0.000000 0.000003 0.000002 0.000000 -0.000000 0.000000 0.000003 0.000003 0.000003 0.000000 0.000002 0.043417 0.002450 0.002889 0.000000 -0.000000 -0.000005 -0.000001 -0.000003 -0.000002 -0.000001 -0.000006 0.000002 0.000001 -0.000001 0.000000 -0.016662 0.078957 0.057696 4.800613 0.283306 -33.968044 -0.176972 -0.020537 -0.095144 -9.685087 -5.564927 10.741914 16.630384 -12.961247 -118.730462 0.000000 -0.000001 0.000006 -0.021773 -0.038278 0.012988 0.000002 0.000002 -0.000005 -0.000003 0.000005 -0.000001 -0.000001 -0.000002 -0.000005 -0.000001 0.000003 0.000002 0.009114 -0.002381 -0.024211 -0.000001 -0.000001 0.000002 0.000001 -0.000003 0.000000 -0.000005 -0.000003 -0.000006 -0.032828 -0.025095 0.012286 0.000002 0.000003 -0.000006 -0.000002 -0.000000 -0.000003 0.000001 0.000001 0.000001 -0.000002 0.000000 -0.000009 -0.039192 -0.011488 0.008390 0.000003 0.000004 -0.000000 -0.000000 0.000007 0.000002 0.000002 -0.000003 0.000003 -0.000003 -0.000002 -0.000003 -0.043421 0.002443 0.002845 0.000003 0.000003 -0.000008 -0.000006 0.000009 -0.000003 -0.000002 -0.000004 -0.000002 0.000001 0.000001 0.000001 -0.000000 0.000000 0.000000 -2.361245 1.390958 -15.458738 53.363605 -0.745265 -12.467937 -6.090257 0.019749 -0.197185 0.000000 -0.000001 -0.000001 -0.000001 0.000002 0.000001 -0.000002 -0.000000 -0.000001 -0.038000 -0.085200 0.016200 0.000005 -0.000001 -0.000002 -0.000000 0.000000 0.000000 -2.256899 1.363266 -14.227064 52.087470 -0.705100 -6.052295 -12.201131 0.753389 -7.623811 0.000000 -0.000002 -0.000000 0.000004 -0.000000 0.000000 0.000007 -0.000001 0.000000 0.038000 -0.085200 0.016200 -0.000001 -0.000001 -0.000003 
